<?xml version="1.0" standalone="no"?>
<!DOCTYPE svg PUBLIC "-//W3C//DTD SVG 20010904//EN"
 "http://www.w3.org/TR/2001/REC-SVG-20010904/DTD/svg10.dtd">
<svg version="1.0" xmlns="http://www.w3.org/2000/svg"
 width="5227.000000pt" height="4243.000000pt" viewBox="0 0 5227.000000 4243.000000"
 preserveAspectRatio="xMidYMid meet">

<g transform="translate(0.000000,4243.000000) scale(0.100000,-0.100000)"
fill="#000000" stroke="none">
<path d="M35695 39576 c-29 -13 -164 -120 -325 -256 -151 -128 -295 -242 -320
-253 -82 -37 -130 -30 -519 77 -319 89 -359 98 -409 92 -108 -13 -205 -90
-238 -189 -33 -98 -21 -145 130 -514 75 -183 139 -352 142 -376 12 -85 -13
-134 -230 -466 -167 -254 -207 -322 -217 -367 -24 -109 23 -230 115 -291 86
-58 90 -59 511 -29 431 30 442 30 524 -41 24 -20 142 -159 262 -309 120 -150
233 -284 252 -298 126 -96 317 -64 404 68 26 39 46 105 118 399 47 194 95 371
106 394 43 89 78 109 446 248 381 143 379 142 423 187 109 108 107 301 -2 404
-18 17 -166 113 -328 214 -162 100 -310 196 -328 214 -18 17 -44 54 -58 83
-25 51 -26 63 -44 436 -14 295 -22 392 -34 421 -44 107 -149 176 -265 176 -48
0 -79 -7 -116 -24z"/>
<path d="M18136 35034 c-178 -43 -334 -196 -381 -375 -20 -72 -19 -212 1 -280
52 -177 188 -312 368 -364 82 -24 213 -22 297 4 216 68 369 275 369 501 -1
344 -319 595 -654 514z m205 -279 c94 -33 156 -111 166 -209 7 -69 -15 -132
-66 -189 -48 -53 -101 -77 -177 -77 -138 0 -244 105 -244 242 1 169 165 288
321 233z"/>
<path d="M27812 34507 c-49 -15 -127 -90 -147 -139 -21 -53 -22 -151 -2 -199
20 -49 73 -106 121 -132 58 -30 174 -30 232 0 94 50 154 162 139 261 -14 95
-79 178 -164 208 -43 16 -133 16 -179 1z"/>
<path d="M25055 31465 c-5 -2 -22 -6 -38 -9 -38 -9 -104 -70 -116 -109 -6 -18
-24 -141 -40 -273 -17 -139 -36 -254 -44 -270 -26 -51 -68 -79 -252 -174 -233
-120 -267 -142 -293 -189 -43 -76 -23 -185 42 -237 17 -14 128 -70 246 -125
221 -103 271 -136 290 -193 5 -17 28 -135 49 -263 22 -127 47 -245 55 -261 49
-95 190 -131 273 -69 16 12 102 101 192 197 89 96 176 183 194 192 45 24 93
22 322 -12 249 -37 295 -38 349 -6 67 39 107 134 86 205 -5 18 -64 132 -131
252 -159 287 -158 247 -8 550 106 214 114 235 114 288 -1 71 -29 121 -89 156
-59 35 -92 33 -372 -22 l-242 -47 -46 18 c-35 14 -90 60 -234 200 -165 160
-194 184 -234 194 -48 12 -55 13 -73 7z"/>
<path d="M13167 29483 c-49 -3 -57 -7 -53 -21 52 -164 317 -1160 456 -1712
784 -3124 1328 -6227 1649 -9418 27 -260 50 -474 52 -476 2 -2 231 -60 509
-129 2472 -613 4558 -1356 6415 -2284 1172 -587 2195 -1215 3153 -1937 140
-105 259 -195 266 -200 8 -5 109 65 296 206 1470 1104 3159 2031 5137 2819
1429 569 3088 1083 4786 1484 l157 37 0 33 c0 93 134 1336 210 1945 397 3192
1042 6425 1884 9444 31 110 53 202 50 205 -11 11 -1148 5 -1384 -7 -1930 -100
-3709 -430 -5653 -1048 -879 -279 -1504 -523 -2234 -873 -1055 -504 -2242
-1236 -3127 -1929 -77 -61 -112 -83 -122 -76 -7 5 -94 72 -194 149 -831 641
-1975 1346 -2950 1818 -708 342 -1276 570 -2095 840 -2309 761 -4606 1146
-6775 1135 -206 -1 -401 -3 -433 -5z"/>
<path d="M38415 8534 c-419 -61 -770 -246 -943 -497 -125 -181 -182 -368 -182
-593 0 -401 160 -704 474 -894 145 -88 279 -129 711 -215 520 -104 650 -145
813 -258 198 -137 293 -317 294 -563 0 -97 -9 -143 -48 -244 -55 -140 -146
-272 -262 -380 -92 -87 -247 -167 -387 -201 -126 -31 -314 -31 -439 0 -360 88
-693 406 -802 767 -24 79 -27 105 -27 229 0 152 17 239 69 354 25 58 29 111 8
118 -38 13 -357 -278 -468 -427 -74 -98 -79 -115 -61 -199 98 -467 461 -786
1025 -900 180 -36 283 -46 505 -46 292 0 445 29 681 129 328 139 561 351 663
603 108 268 100 627 -20 866 -88 173 -235 319 -415 410 -139 70 -420 144 -749
197 -509 81 -721 136 -848 221 -144 95 -229 274 -244 515 -11 183 30 355 130
549 135 260 392 405 716 405 127 0 217 -21 321 -71 70 -35 102 -60 181 -138
79 -79 103 -111 137 -181 65 -132 85 -220 85 -380 0 -162 -20 -248 -86 -375
-24 -47 -42 -87 -40 -89 15 -15 260 107 391 194 111 73 156 110 194 157 30 38
30 38 26 143 -4 90 -9 116 -37 185 -39 96 -144 257 -211 324 -123 123 -335
215 -610 267 -82 15 -474 28 -545 18z"/>
<path d="M16838 8450 c-323 -5 -338 -6 -358 -25 -29 -30 -42 -155 -38 -383 4
-264 21 -276 102 -75 60 150 100 225 144 270 123 126 272 153 865 153 l347 0
0 -1750 c0 -1318 -3 -1755 -12 -1775 -6 -14 -33 -41 -60 -60 -50 -36 -65 -76
-32 -89 9 -3 177 -6 374 -6 345 0 360 1 370 19 15 28 4 46 -50 85 -36 26 -52
45 -59 73 -8 26 -11 588 -11 1772 l0 1733 378 -5 c392 -6 490 -13 607 -48 169
-50 234 -114 340 -333 40 -83 79 -157 87 -164 27 -22 42 12 46 106 5 119 -13
421 -28 454 -7 15 -24 31 -39 37 -28 11 -2381 20 -2973 11z"/>
<path d="M34099 8453 c-202 -3 -249 -6 -259 -18 -18 -22 -6 -41 29 -48 18 -4
42 -17 54 -31 12 -13 334 -519 715 -1123 l692 -1100 0 -629 0 -628 -56 -52
c-42 -40 -55 -58 -52 -76 l3 -23 350 -8 c193 -4 360 -5 373 -2 40 10 28 45
-35 101 l-58 52 0 683 0 684 86 135 c47 74 157 250 244 390 87 140 300 482
475 760 174 278 361 577 414 665 62 101 115 176 144 203 57 52 49 62 -53 62
-85 0 -102 -8 -84 -38 10 -16 10 -26 1 -47 -12 -26 -258 -422 -871 -1402 -163
-260 -321 -513 -352 -563 l-56 -90 -600 958 c-713 1137 -665 1059 -661 1086 2
13 17 28 41 39 41 19 45 28 20 48 -18 16 -98 17 -504 12z"/>
<path d="M12163 8443 c-7 -2 -13 -15 -13 -28 0 -24 10 -33 80 -78 75 -48 69
105 63 -1766 -3 -1123 -8 -1685 -15 -1703 -6 -15 -33 -44 -60 -63 -41 -30 -49
-40 -46 -63 l3 -27 1188 -3 c1273 -2 1236 -4 1251 45 22 72 46 565 32 674 -8
65 -28 100 -46 83 -6 -6 -40 -91 -75 -188 -81 -221 -122 -300 -191 -366 -149
-141 -335 -170 -1082 -170 l-445 0 5 1755 c6 1959 -2 1781 77 1826 45 25 57
45 40 65 -9 11 -79 14 -383 13 -204 0 -377 -3 -383 -6z"/>
<path d="M15393 8443 c-7 -2 -13 -15 -13 -28 0 -24 10 -33 80 -78 75 -48 69
105 63 -1766 -3 -1123 -8 -1685 -15 -1703 -6 -15 -33 -44 -60 -63 -41 -30 -49
-40 -46 -63 l3 -27 371 -3 c316 -2 373 0 384 12 19 23 3 52 -49 90 -34 24 -53
46 -61 72 -10 30 -12 393 -8 1726 6 1883 -1 1715 77 1759 45 25 57 45 40 65
-9 11 -79 14 -383 13 -204 0 -377 -3 -383 -6z"/>
<path d="M20480 8436 c-19 -23 -3 -52 43 -79 23 -14 53 -37 67 -52 l25 -27 3
-1684 c2 -1446 0 -1689 -12 -1719 -9 -20 -35 -49 -65 -70 -51 -37 -62 -60 -39
-83 16 -16 2819 -18 2866 -1 39 13 49 42 61 174 26 268 22 588 -8 618 -20 20
-37 -12 -96 -178 -80 -225 -117 -299 -184 -366 -102 -102 -239 -147 -510 -168
-77 -6 -429 -11 -813 -11 l-678 0 0 925 0 925 555 0 c604 0 698 -6 859 -57
103 -32 147 -55 198 -101 63 -56 100 -122 173 -308 72 -182 82 -201 98 -185
12 12 15 1403 3 1439 -9 27 -27 28 -43 3 -7 -11 -42 -100 -79 -198 -36 -98
-80 -202 -96 -232 -44 -77 -122 -151 -201 -189 -150 -74 -345 -92 -994 -92
l-473 0 0 835 0 835 719 0 c875 0 1035 -10 1181 -76 129 -58 168 -105 280
-328 41 -83 80 -152 87 -154 30 -9 38 41 36 238 -2 232 -13 325 -43 354 l-21
21 -1443 3 c-1256 2 -1445 0 -1456 -12z"/>
<path d="M23782 8437 c-20 -24 -6 -53 41 -80 23 -14 53 -37 67 -52 l25 -27 3
-1684 c2 -1446 0 -1689 -12 -1719 -9 -20 -35 -49 -65 -70 -51 -37 -62 -60 -39
-83 9 -9 104 -12 364 -12 194 0 359 3 368 6 9 4 16 18 16 33 0 21 -10 35 -44
59 -66 48 -69 61 -64 304 5 189 8 224 31 312 32 119 100 262 159 333 92 110
245 226 408 308 105 53 330 146 339 140 4 -2 68 -99 144 -217 76 -117 253
-391 394 -608 141 -217 266 -417 279 -445 32 -67 32 -126 -1 -161 -58 -63 -50
-64 385 -64 394 0 410 1 410 38 0 7 -27 40 -60 73 -32 33 -110 134 -172 226
-62 91 -118 173 -124 182 -6 9 -61 93 -121 186 -60 94 -208 321 -328 505 -120
184 -237 366 -261 404 l-42 70 104 52 c299 150 538 364 653 584 101 194 124
434 65 664 -39 153 -163 351 -290 463 -190 168 -370 250 -600 273 -54 6 -531
13 -1059 17 -874 6 -961 5 -973 -10z m1666 -67 c175 -20 336 -81 458 -173 114
-87 197 -227 250 -422 24 -88 27 -119 27 -250 0 -174 -17 -254 -84 -395 -142
-298 -406 -542 -964 -895 -349 -220 -438 -286 -532 -396 -62 -73 -99 -129
-133 -201 l-30 -63 0 1397 0 1398 288 3 c158 1 366 3 462 5 96 1 212 -2 258
-8z"/>
<path d="M28370 8435 c-18 -22 -8 -48 25 -64 33 -15 95 -70 95 -84 0 -7 -1145
-3214 -1218 -3411 -17 -45 -39 -83 -64 -108 -21 -21 -38 -43 -38 -48 0 -15
207 -13 216 2 4 6 2 14 -4 16 -31 10 -44 36 -39 76 6 37 319 931 330 943 3 2
405 1 894 -3 l890 -7 152 -411 c179 -481 180 -485 112 -548 l-45 -41 23 -18
c22 -18 47 -19 386 -19 200 0 370 3 379 6 32 12 16 43 -41 81 -52 35 -63 49
-110 138 -36 70 -237 607 -663 1774 -336 921 -617 1689 -625 1708 l-14 33
-314 0 c-263 0 -317 -2 -327 -15z m298 -605 c66 -173 263 -691 437 -1150 174
-459 320 -839 323 -844 6 -10 -1706 -1 -1716 8 -3 3 181 525 409 1161 227 635
417 1151 420 1147 4 -4 61 -149 127 -322z"/>
<path d="M30732 8437 c-20 -24 -6 -53 41 -80 23 -14 53 -37 67 -52 l25 -27 3
-1684 c2 -1446 0 -1689 -12 -1719 -9 -20 -35 -49 -65 -70 -51 -37 -62 -60 -39
-83 9 -9 104 -12 364 -12 194 0 359 3 368 6 9 4 16 18 16 33 0 21 -10 35 -44
59 -66 48 -69 61 -64 304 5 189 8 224 31 312 32 119 100 262 159 333 92 110
245 226 408 308 105 53 330 146 339 140 4 -2 68 -99 144 -217 76 -117 253
-391 394 -608 141 -217 266 -417 279 -445 32 -67 32 -126 -1 -161 -58 -63 -50
-64 385 -64 394 0 410 1 410 38 0 7 -27 40 -60 73 -32 33 -110 134 -172 226
-62 91 -118 173 -124 182 -6 9 -61 93 -121 186 -60 94 -208 321 -328 505 -120
184 -237 366 -261 404 l-42 70 104 52 c299 150 538 364 653 584 101 194 124
434 65 664 -39 153 -163 351 -290 463 -190 168 -370 250 -600 273 -54 6 -531
13 -1059 17 -874 6 -961 5 -973 -10z m1666 -67 c175 -20 336 -81 458 -173 114
-87 197 -227 250 -422 24 -88 27 -119 27 -250 0 -174 -17 -254 -84 -395 -142
-298 -406 -542 -964 -895 -349 -220 -438 -286 -532 -396 -62 -73 -99 -129
-133 -201 l-30 -63 0 1397 0 1398 288 3 c158 1 366 3 462 5 96 1 212 -2 258
-8z"/>
<path d="M5071 2069 c-150 -26 -271 -90 -381 -199 -113 -112 -170 -234 -191
-402 -28 -230 47 -448 206 -596 124 -116 275 -178 461 -189 358 -21 645 155
751 459 37 108 44 300 14 418 -61 246 -243 428 -496 495 -72 20 -288 28 -364
14z m272 -89 c126 -39 211 -146 258 -325 27 -102 37 -337 20 -455 -22 -149
-88 -292 -164 -356 -18 -15 -57 -39 -87 -53 -47 -22 -68 -26 -150 -26 -77 1
-105 5 -145 23 -114 52 -206 188 -240 357 -19 94 -22 325 -5 430 51 327 252
485 513 405z"/>
<path d="M16125 2066 c-153 -31 -259 -88 -370 -200 -138 -139 -195 -283 -195
-490 0 -64 7 -139 15 -176 43 -184 182 -359 346 -438 139 -67 189 -77 389 -76
190 1 307 19 425 65 l60 24 6 180 c4 131 10 190 21 216 15 34 53 68 91 82 9 4
17 16 17 27 0 20 -5 20 -280 20 -270 0 -280 -1 -280 -19 0 -13 11 -23 33 -30
39 -13 81 -54 96 -94 6 -16 11 -85 11 -155 0 -146 -12 -183 -70 -217 -53 -30
-212 -28 -295 5 -112 44 -197 153 -241 310 -29 101 -26 424 4 535 63 228 184
348 365 362 83 6 167 -12 249 -53 69 -35 176 -144 213 -216 19 -37 36 -58 48
-58 16 0 17 15 17 185 0 178 -1 185 -20 185 -11 0 -34 -9 -52 -20 -44 -27 -60
-26 -196 16 -138 43 -287 53 -407 30z"/>
<path d="M21295 2063 c-4 -10 -94 -252 -202 -538 -107 -286 -208 -549 -225
-584 -37 -78 -103 -151 -158 -176 -26 -12 -40 -25 -40 -37 0 -17 13 -18 215
-18 201 0 215 1 215 18 0 12 -17 26 -50 41 -98 44 -105 91 -39 271 l44 120
239 -2 239 -3 39 -100 c58 -149 70 -197 59 -228 -10 -26 -62 -58 -113 -71 -19
-4 -28 -13 -28 -26 0 -20 8 -20 325 -20 311 0 325 1 325 19 0 13 -12 22 -44
31 -65 18 -108 60 -153 147 -22 43 -134 324 -249 626 l-208 547 -92 0 c-78 0
-93 -3 -99 -17z m100 -536 c53 -142 95 -260 92 -263 -2 -2 -90 -3 -195 -2
l-190 3 69 190 c38 105 81 223 95 263 15 40 27 72 29 70 1 -2 46 -119 100
-261z"/>
<path d="M22707 2013 c-4 -38 -7 -110 -7 -160 0 -82 2 -93 18 -92 11 0 27 21
46 60 50 107 137 149 308 149 l99 0 -3 -547 c-4 -645 2 -611 -105 -652 -45
-18 -63 -30 -63 -43 0 -17 17 -18 315 -18 308 0 315 0 315 20 0 11 -6 20 -12
20 -7 0 -36 11 -65 24 -92 43 -88 10 -91 644 l-3 552 99 0 c171 0 258 -42 308
-149 19 -39 35 -60 47 -60 15 -1 17 9 17 67 0 38 -3 110 -6 160 -8 102 -8 103
-79 77 -59 -21 -1001 -21 -1060 0 -68 25 -71 23 -78 -52z"/>
<path d="M28191 2069 c-150 -26 -271 -90 -381 -199 -113 -112 -170 -234 -191
-402 -28 -230 47 -448 206 -596 124 -116 275 -178 461 -189 358 -21 645 155
751 459 37 108 44 300 14 418 -61 246 -243 428 -496 495 -72 20 -288 28 -364
14z m272 -89 c126 -39 211 -146 258 -325 27 -102 37 -337 20 -455 -22 -149
-88 -292 -164 -356 -18 -15 -57 -39 -87 -53 -47 -22 -68 -26 -150 -26 -77 1
-105 5 -145 23 -114 52 -206 188 -240 357 -19 94 -22 325 -5 430 51 327 252
485 513 405z"/>
<path d="M38581 2069 c-150 -26 -271 -90 -381 -199 -113 -112 -170 -234 -191
-402 -28 -230 47 -448 206 -596 124 -116 275 -178 461 -189 358 -21 645 155
751 459 37 108 44 300 14 418 -61 246 -243 428 -496 495 -72 20 -288 28 -364
14z m272 -89 c126 -39 211 -146 258 -325 27 -102 37 -337 20 -455 -22 -149
-88 -292 -164 -356 -18 -15 -57 -39 -87 -53 -47 -22 -68 -26 -150 -26 -77 1
-105 5 -145 23 -114 52 -206 188 -240 357 -19 94 -22 325 -5 430 51 327 252
485 513 405z"/>
<path d="M40921 2069 c-150 -26 -271 -90 -381 -199 -113 -112 -170 -234 -191
-402 -28 -230 47 -448 206 -596 124 -116 275 -178 461 -189 358 -21 645 155
751 459 37 108 44 300 14 418 -61 246 -243 428 -496 495 -72 20 -288 28 -364
14z m272 -89 c126 -39 211 -146 258 -325 27 -102 37 -337 20 -455 -22 -149
-88 -292 -164 -356 -18 -15 -57 -39 -87 -53 -47 -22 -68 -26 -150 -26 -77 1
-105 5 -145 23 -114 52 -206 188 -240 357 -19 94 -22 325 -5 430 51 327 252
485 513 405z"/>
<path d="M45170 2069 c-107 -21 -216 -102 -264 -197 -51 -102 -54 -241 -6
-348 44 -101 104 -152 347 -298 184 -110 253 -186 253 -276 0 -48 -17 -85 -57
-121 -54 -51 -91 -63 -188 -63 -106 0 -158 19 -229 84 -48 44 -110 155 -122
216 -4 24 -12 34 -25 34 -18 0 -19 -11 -19 -205 0 -183 2 -205 16 -205 9 0 27
11 40 25 29 31 45 31 164 -1 177 -46 311 -43 427 12 73 35 144 102 178 171 28
54 30 66 30 168 0 102 -2 114 -30 170 -50 99 -137 177 -330 295 -242 147 -278
178 -296 258 -25 115 97 223 236 209 108 -11 228 -103 282 -216 18 -39 34 -60
46 -60 16 -1 17 14 17 179 0 197 -2 203 -57 160 -32 -25 -55 -25 -163 0 -89
21 -175 24 -250 9z"/>
<path d="M46547 2013 c-4 -38 -7 -110 -7 -160 0 -82 2 -93 18 -92 11 0 27 21
46 60 50 107 137 149 308 149 l99 0 -3 -547 c-4 -645 2 -611 -105 -652 -45
-18 -63 -30 -63 -43 0 -17 17 -18 315 -18 308 0 315 0 315 20 0 11 -6 20 -12
20 -7 0 -36 11 -65 24 -92 43 -88 10 -91 644 l-3 552 99 0 c171 0 258 -42 308
-149 19 -39 35 -60 47 -60 15 -1 17 9 17 67 0 38 -3 110 -6 160 -8 102 -8 103
-79 77 -59 -21 -1001 -21 -1060 0 -68 25 -71 23 -78 -52z"/>
<path d="M62 2029 c2 -16 15 -25 43 -34 58 -17 91 -41 106 -78 20 -47 20
-1027 0 -1074 -15 -37 -48 -61 -106 -78 -28 -9 -41 -18 -43 -34 l-3 -21 316 0
316 0 -3 21 c-2 15 -18 27 -55 41 -68 25 -100 63 -108 130 -3 29 -5 150 -3
268 l3 214 208 -257 c241 -298 247 -307 227 -333 -8 -9 -30 -23 -47 -31 -22
-9 -33 -20 -33 -33 0 -20 7 -20 305 -20 290 0 305 1 305 18 0 13 -12 22 -40
31 -22 6 -56 26 -75 43 -28 24 -552 659 -604 731 -13 18 -4 29 124 151 252
239 334 296 457 320 45 8 58 15 58 28 0 17 -19 18 -280 18 -260 0 -280 -1
-280 -17 0 -12 19 -27 53 -43 62 -30 81 -60 64 -102 -7 -16 -109 -121 -227
-234 l-215 -206 -3 204 c-2 122 1 217 7 239 15 49 53 85 112 104 36 12 49 22
49 36 0 18 -11 19 -316 19 l-315 0 3 -21z"/>
<path d="M2220 2032 c0 -11 14 -25 33 -34 17 -9 58 -40 90 -68 l58 -53 -3
-491 c-3 -542 -2 -534 -67 -589 -18 -14 -50 -31 -71 -37 -29 -8 -40 -16 -40
-30 0 -19 8 -20 230 -20 221 0 230 1 230 19 0 15 -13 23 -56 36 -73 21 -99 38
-118 80 -14 29 -16 93 -16 480 l0 446 481 -540 c322 -363 487 -541 500 -541
19 0 19 13 19 568 0 636 1 644 65 701 31 27 88 51 123 51 6 0 12 9 12 20 0 19
-7 20 -230 20 -220 0 -230 -1 -230 -19 0 -14 13 -24 50 -36 57 -19 95 -58 110
-115 6 -24 9 -165 8 -377 l-3 -340 -385 443 -385 443 -202 0 c-190 1 -203 0
-203 -17z"/>
<path d="M6640 2031 c0 -15 10 -21 41 -26 48 -8 102 -52 129 -104 10 -20 115
-295 233 -611 118 -316 218 -583 222 -593 5 -11 16 -17 28 -15 18 3 45 75 195
521 96 284 177 515 179 513 3 -2 91 -235 197 -518 179 -476 195 -513 216 -513
22 0 35 34 210 546 102 300 199 572 215 604 38 78 96 140 151 161 30 11 44 23
44 35 0 18 -12 19 -205 19 -193 0 -205 -1 -205 -18 0 -12 14 -25 41 -37 54
-25 73 -62 66 -135 -6 -66 -209 -675 -219 -657 -23 41 -258 689 -258 711 0 38
16 63 50 81 18 9 30 23 30 35 0 19 -8 20 -285 20 -272 0 -285 -1 -285 -19 0
-13 12 -22 47 -31 57 -16 104 -56 126 -107 l16 -38 -113 -335 c-98 -287 -115
-331 -124 -310 -102 268 -244 657 -249 683 -7 45 17 91 57 107 18 8 30 20 30
31 0 18 -13 19 -290 19 -279 0 -290 -1 -290 -19z"/>
<path d="M9500 2031 c0 -14 11 -23 38 -31 60 -20 99 -48 113 -83 20 -47 20
-1027 0 -1074 -15 -37 -39 -55 -102 -76 -31 -10 -45 -21 -47 -36 l-3 -21 510
0 510 0 5 33 c5 29 36 299 36 312 0 3 -9 5 -19 5 -13 0 -31 -21 -57 -67 -21
-37 -57 -89 -82 -115 -62 -66 -111 -83 -242 -83 -124 0 -167 17 -187 75 -14
42 -18 963 -3 1024 11 51 33 72 100 95 40 14 56 25 58 40 3 21 2 21 -312 21
-305 0 -316 -1 -316 -19z"/>
<path d="M11340 2031 c0 -12 10 -21 28 -26 15 -3 46 -15 69 -26 75 -36 73 -21
72 -591 0 -362 -3 -513 -12 -538 -14 -39 -61 -75 -119 -90 -28 -8 -38 -16 -38
-30 0 -20 10 -20 514 -20 l513 0 7 118 c4 64 10 138 13 165 5 43 4 47 -15 47
-15 0 -28 -16 -49 -62 -38 -79 -73 -121 -132 -156 -43 -25 -53 -27 -166 -27
-97 0 -126 3 -153 18 -56 31 -62 59 -62 307 l0 220 133 0 c72 0 149 -5 169
-10 45 -13 94 -66 108 -120 8 -29 16 -40 30 -40 19 0 20 8 20 210 0 193 -1
210 -17 210 -12 0 -28 -22 -48 -62 -47 -97 -58 -102 -241 -106 l-154 -4 0 277
0 277 173 -4 c229 -4 261 -20 307 -151 13 -37 24 -53 39 -55 20 -3 21 0 21
142 l0 146 -505 0 c-489 0 -505 -1 -505 -19z"/>
<path d="M13200 2032 c0 -14 13 -24 48 -37 70 -27 100 -51 112 -93 15 -54 12
-995 -3 -1047 -11 -36 -19 -43 -84 -75 -50 -24 -73 -41 -73 -53 0 -18 21 -18
473 -14 522 4 529 5 672 72 145 70 265 203 314 350 32 94 40 278 17 384 -52
247 -242 431 -516 502 -80 21 -112 23 -522 26 -428 4 -438 4 -438 -15z m771
-76 c183 -39 310 -161 371 -356 20 -65 23 -96 23 -225 0 -112 -4 -166 -18
-215 -68 -251 -248 -384 -498 -367 -83 5 -126 23 -158 63 -21 26 -21 34 -21
570 l0 544 118 0 c64 0 147 -7 183 -14z"/>
<path d="M17750 2031 c0 -12 10 -21 28 -26 15 -3 46 -15 69 -26 75 -36 73 -21
72 -591 0 -362 -3 -513 -12 -538 -14 -39 -61 -75 -119 -90 -28 -8 -38 -16 -38
-30 0 -20 10 -20 514 -20 l513 0 7 118 c4 64 10 138 13 165 5 43 4 47 -15 47
-15 0 -28 -16 -49 -62 -38 -79 -73 -121 -132 -156 -43 -25 -53 -27 -166 -27
-97 0 -126 3 -153 18 -56 31 -62 59 -62 307 l0 220 133 0 c72 0 149 -5 169
-10 45 -13 94 -66 108 -120 8 -29 16 -40 30 -40 19 0 20 8 20 210 0 193 -1
210 -17 210 -12 0 -28 -22 -48 -62 -47 -97 -58 -102 -241 -106 l-154 -4 0 277
0 277 173 -4 c229 -4 261 -20 307 -151 13 -37 24 -53 39 -55 20 -3 21 0 21
142 l0 146 -505 0 c-489 0 -505 -1 -505 -19z"/>
<path d="M25590 2032 c0 -13 12 -23 41 -31 22 -7 58 -28 79 -47 21 -19 124
-167 229 -328 l191 -293 0 -207 c0 -120 -5 -226 -11 -252 -14 -53 -61 -98
-119 -114 -29 -8 -40 -16 -40 -30 0 -19 9 -20 315 -20 307 0 315 0 315 20 0
13 -9 22 -27 26 -53 13 -103 44 -120 77 -16 28 -18 66 -21 303 l-3 272 175
249 c185 264 239 324 305 344 29 8 41 18 41 31 0 17 -13 18 -210 18 -201 0
-210 -1 -210 -19 0 -11 9 -23 20 -26 11 -4 34 -18 50 -32 25 -20 30 -32 30
-67 0 -23 -9 -58 -20 -79 -29 -53 -220 -327 -228 -327 -10 1 -239 360 -257
404 -9 21 -13 46 -10 57 7 20 53 49 80 49 8 0 15 9 15 20 0 20 -7 20 -305 20
-290 0 -305 -1 -305 -18z"/>
<path d="M29920 2032 c0 -13 18 -25 62 -43 109 -43 102 -10 108 -527 5 -374 8
-455 22 -494 66 -197 243 -301 482 -285 128 8 217 48 349 158 l37 31 0 -81 0
-81 235 0 c221 0 235 1 235 18 0 13 -18 25 -62 43 -110 43 -103 1 -106 588 -2
391 0 517 10 547 15 43 59 78 120 94 28 8 38 16 38 30 0 19 -9 20 -320 20
-303 0 -320 -1 -320 -18 0 -13 18 -25 62 -43 109 -43 103 -7 106 -549 l3 -468
-68 -57 c-37 -32 -97 -71 -133 -89 -56 -27 -76 -31 -145 -31 -120 0 -191 45
-229 147 -15 38 -16 97 -14 505 3 534 -3 499 106 542 44 18 62 30 62 43 0 17
-17 18 -320 18 -303 0 -320 -1 -320 -18z"/>
<path d="M32250 2031 c0 -15 12 -23 53 -35 57 -16 89 -44 106 -89 7 -19 11
-198 11 -528 0 -543 0 -544 -56 -588 -15 -12 -48 -27 -71 -34 -30 -8 -43 -16
-43 -29 0 -17 19 -18 320 -18 303 0 320 1 320 18 0 13 -15 23 -53 35 -57 18
-89 45 -106 90 -7 17 -11 120 -11 259 l0 231 69 -6 c82 -7 115 -22 163 -75 35
-39 45 -55 173 -292 37 -69 87 -155 112 -193 l45 -67 194 0 c185 0 194 1 194
19 0 13 -11 23 -36 31 -77 26 -117 78 -273 355 -80 143 -151 239 -189 256
l-31 13 68 32 c80 37 138 91 172 160 34 69 34 198 1 266 -41 82 -130 147 -258
184 -50 15 -117 18 -466 21 -403 5 -408 4 -408 -16z m669 -77 c66 -19 124 -71
148 -132 39 -101 13 -271 -50 -331 -42 -39 -116 -63 -209 -69 l-88 -5 0 277 0
276 73 0 c40 0 97 -7 126 -16z"/>
<path d="M35650 2032 c0 -14 13 -24 48 -37 70 -27 100 -51 112 -93 15 -54 12
-995 -3 -1047 -11 -36 -19 -43 -84 -75 -50 -24 -73 -41 -73 -53 0 -18 21 -18
473 -14 522 4 529 5 672 72 145 70 265 203 314 350 32 94 40 278 17 384 -52
247 -242 431 -516 502 -80 21 -112 23 -522 26 -428 4 -438 4 -438 -15z m771
-76 c183 -39 310 -161 371 -356 20 -65 23 -96 23 -225 0 -112 -4 -166 -18
-215 -68 -251 -248 -384 -498 -367 -83 5 -126 23 -158 63 -21 26 -21 34 -21
570 l0 544 118 0 c64 0 147 -7 183 -14z"/>
<path d="M42640 2031 c0 -15 12 -23 53 -35 57 -16 89 -44 106 -89 7 -19 11
-198 11 -528 0 -543 0 -544 -56 -588 -15 -12 -48 -27 -71 -34 -30 -8 -43 -16
-43 -29 0 -17 19 -18 320 -18 303 0 320 1 320 18 0 13 -15 23 -53 35 -57 18
-89 45 -106 90 -7 17 -11 120 -11 259 l0 231 69 -6 c82 -7 115 -22 163 -75 35
-39 45 -55 173 -292 37 -69 87 -155 112 -193 l45 -67 194 0 c185 0 194 1 194
19 0 13 -11 23 -36 31 -77 26 -117 78 -273 355 -80 143 -151 239 -189 256
l-31 13 68 32 c80 37 138 91 172 160 34 69 34 198 1 266 -41 82 -130 147 -258
184 -50 15 -117 18 -466 21 -403 5 -408 4 -408 -16z m669 -77 c66 -19 124 -71
148 -132 39 -101 13 -271 -50 -331 -42 -39 -116 -63 -209 -69 l-88 -5 0 277 0
276 73 0 c40 0 97 -7 126 -16z"/>
<path d="M48550 2031 c0 -12 10 -21 28 -26 15 -3 46 -15 69 -26 75 -36 73 -21
72 -591 0 -362 -3 -513 -12 -538 -14 -39 -61 -75 -119 -90 -28 -8 -38 -16 -38
-30 0 -20 10 -20 514 -20 l513 0 7 118 c4 64 10 138 13 165 5 43 4 47 -15 47
-15 0 -28 -16 -49 -62 -38 -79 -73 -121 -132 -156 -43 -25 -53 -27 -166 -27
-97 0 -126 3 -153 18 -56 31 -62 59 -62 307 l0 220 133 0 c72 0 149 -5 169
-10 45 -13 94 -66 108 -120 8 -29 16 -40 30 -40 19 0 20 8 20 210 0 193 -1
210 -17 210 -12 0 -28 -22 -48 -62 -47 -97 -58 -102 -241 -106 l-154 -4 0 277
0 277 173 -4 c229 -4 261 -20 307 -151 13 -37 24 -53 39 -55 20 -3 21 0 21
142 l0 146 -505 0 c-489 0 -505 -1 -505 -19z"/>
<path d="M50410 2032 c0 -13 18 -25 62 -43 111 -43 103 1 103 -602 0 -610 6
-574 -103 -616 -44 -18 -62 -30 -62 -43 0 -17 17 -18 315 -18 307 0 315 0 315
20 0 13 -9 22 -27 26 -53 13 -103 44 -120 77 -16 28 -18 61 -18 256 l0 223
160 3 c170 2 220 12 319 62 74 37 149 118 174 186 27 72 29 182 5 253 -21 61
-107 150 -177 183 -98 46 -155 51 -563 51 -364 0 -383 -1 -383 -18z m676 -86
c95 -44 144 -135 144 -266 0 -200 -125 -314 -314 -286 l-46 7 0 285 0 284 83
0 c65 0 92 -5 133 -24z"/>
</g>
</svg>
